<svg width="24" height="24" viewBox="0 0 24 24" fill="none" xmlns="http://www.w3.org/2000/svg">
<path d="M12.4 14.4C13.2 13.3 13.7 12 13.7 10.5C13.7 6.99999 10.9 4.29999 7.49995 4.29999C4.09995 4.29999 1.19995 6.99999 1.19995 10.5C1.19995 14 3.99995 16.7 7.39995 16.7C8.89995 16.7 10.2 16.2 11.3 15.4L15 19L16 18L12.4 14.4ZM7.49995 15.2C4.89995 15.2 2.69995 13.1 2.69995 10.4C2.69995 7.79999 4.79995 5.59999 7.49995 5.59999C10.1 5.59999 12.3 7.69999 12.3 10.4C12.2 13.1 10.1 15.2 7.49995 15.2ZM17.5 6.19999H21.5V4.79999H17.5V6.19999ZM21.5 10.2H17.5V8.79999H21.5V10.2ZM17.5 14.2H21.5V12.7H17.5V14.2Z" fill="#454543"/>
</svg>
