<svg width="24" height="24" viewBox="0 0 24 24" fill="none" xmlns="http://www.w3.org/2000/svg">
<path d="M9.5 6C9.2 4.9 8.2 4 7 4C5.8 4 4.8 4.9 4.5 6H3V7H4.5C4.8 8.1 5.8 9 7 9C8.2 9 9.2 8.1 9.5 7H21V6H9.5ZM7 8C6.2 8 5.5 7.3 5.5 6.5C5.5 5.7 6.2 5 7 5C7.8 5 8.5 5.7 8.5 6.5C8.5 7.3 7.8 8 7 8ZM19.5 11.5C19.3 10.4 18.3 9.5 17 9.5C15.7 9.5 14.8 10.4 14.5 11.5H3V12.5H14.5C14.7 13.6 15.7 14.5 17 14.5C18.3 14.5 19.2 13.6 19.5 12.5H21V11.5H19.5ZM17 13.5C16.2 13.5 15.5 12.8 15.5 12C15.5 11.2 16.2 10.5 17 10.5C17.8 10.5 18.5 11.2 18.5 12C18.5 12.8 17.8 13.5 17 13.5ZM11.5 17C11.3 15.9 10.3 15 9 15C7.7 15 6.8 15.9 6.5 17H3V18H6.5C6.7 19.1 7.7 20 9 20C10.3 20 11.2 19.1 11.5 18H21V17H11.5ZM9 19C8.2 19 7.5 18.3 7.5 17.5C7.5 16.7 8.2 16 9 16C9.8 16 10.5 16.7 10.5 17.5C10.5 18.3 9.8 19 9 19Z" fill="#454543"/>
</svg>
