<svg xmlns="http://www.w3.org/2000/svg" width="24" height="24" fill="none" viewBox="0 0 24 24">
    <g clip-path="url(#clip0)">
        <path fill="#fff" d="M0 12c0 6.628 5.372 12 12 12s12-5.372 12-12c0-.822-.088-1.625-.248-2.4l-.066-.266H12v4h7.88C19.243 17.116 15.962 20 12 20c-2.122 0-4.157-.843-5.657-2.343S4 14.122 4 12s.843-4.157 2.343-5.657S9.878 4 12 4c2 0 3.824.738 5.227 1.954l2.867-2.808C17.887 1.118 14.997-.004 12 0 5.372 0 0 5.372 0 12z"/>
    </g>
    <defs>
        <clipPath id="clip0">
            <path fill="#fff" d="M0 0H24V24H0z"/>
        </clipPath>
    </defs>
</svg>
