<svg width="24" height="24" fill="none" xmlns="http://www.w3.org/2000/svg"><path d="M9.5 6C9.2 4.9 8.2 4 7 4s-2.2.9-2.5 2H3v1h1.5C4.8 8.1 5.8 9 7 9s2.2-.9 2.5-2H21V6H9.5zM7 8c-.8 0-1.5-.7-1.5-1.5S6.2 5 7 5s1.5.7 1.5 1.5S7.8 8 7 8zm12.5 3.5c-.2-1.1-1.2-2-2.5-2s-2.2.9-2.5 2H3v1h11.5c.2 1.1 1.2 2 2.5 2s2.2-.9 2.5-2H21v-1h-1.5zm-2.5 2c-.8 0-1.5-.7-1.5-1.5s.7-1.5 1.5-1.5 1.5.7 1.5 1.5-.7 1.5-1.5 1.5zM11.5 17c-.2-1.1-1.2-2-2.5-2s-2.2.9-2.5 2H3v1h3.5c.2 1.1 1.2 2 2.5 2s2.2-.9 2.5-2H21v-1h-9.5zM9 19c-.8 0-1.5-.7-1.5-1.5S8.2 16 9 16s1.5.7 1.5 1.5S9.8 19 9 19z" fill="#454543"/></svg>