<svg width="233" height="16" fill="none" xmlns="http://www.w3.org/2000/svg"><path fill-rule="evenodd" clip-rule="evenodd" d="M162.183 0h.403a8 8 0 11-.038 16l-.403-.002A7.999 7.999 0 01162.183 0zm5.73 7.945c0 3.056-2.499 5.53-5.555 5.515-3.035-.015-5.501-2.48-5.501-5.515 0-3.046 2.482-5.515 5.528-5.515 3.046 0 5.528 2.47 5.528 5.515z" fill="#2B2B2A"/><path d="M2.673.364H0v9.478c0 .486 0 5.997 6.44 5.997 6.439 0 6.439-5.511 6.439-5.997V.364h-2.673V9.4c.004.632.023 4.228-3.766 4.228-3.79 0-3.77-3.596-3.767-4.228V.364zm30.861 2.309V.365H20.898v2.308h9.234l-9.234 11.056v2.11h12.636v-2.353h-8.991l8.991-10.813zM43.497.364V7.29h7.776V.364h2.673V15.84h-2.673V9.72h-7.776v6.119h-2.673V.364h2.673zm30.132 2.309V.365H62.937v15.474h10.692v-2.353H65.61V9.113h7.047V6.804H65.61V2.673h8.019zM93.312.364l4.617 11.179h.486L102.911.364h2.916L99.63 15.838h-3.159L90.396.364h2.916zm25.029 6.804L113.967.364h-2.916l5.954 8.87v6.605h2.308l.122-6.605 6.075-8.87h-2.795l-4.374 6.804zM136.566.364V7.29h7.776V.364h2.673V15.84h-2.673V9.72h-7.776v6.119h-2.673V.364h2.673zm53.217 0v2.309l-8.991 10.813h8.991v2.353h-12.636v-2.11l9.234-11.056h-9.234V.365h12.636zm10.449 6.926V.364h-2.673V15.84h2.673V9.72h7.776v6.119h2.673V.364h-2.673V7.29h-7.776zM219.186.364h2.673V9.4c-.003.632-.023 4.228 3.767 4.228 3.789 0 3.77-3.596 3.766-4.228V.364h2.673v9.478c0 .486 0 5.997-6.439 5.997-6.44 0-6.44-5.511-6.44-5.997V.364z" fill="#2B2B2A"/></svg>