<svg xmlns="http://www.w3.org/2000/svg" width="24" height="24" fill="none"><g clip-path="url(#clip0)"><path fill="#fff" fill-rule="evenodd" d="M20.655 13.845c.796.777 1.637 1.508 2.35 2.364.316.38.615.773.843 1.214.324.627.03 1.318-.532 1.355l-3.496-.002c-.902.075-1.621-.288-2.226-.904-.484-.493-.933-1.018-1.398-1.528a3.299 3.299 0 00-.63-.56c-.477-.31-.89-.214-1.164.284-.277.506-.34 1.067-.368 1.63-.037.824-.286 1.04-1.113 1.078-1.768.084-3.445-.184-5.003-1.075-1.374-.786-2.44-1.896-3.366-3.152-1.806-2.446-3.188-5.134-4.43-7.897-.28-.623-.076-.957.61-.969a97.704 97.704 0 013.424-.002c.463.007.77.273.95.711.616 1.517 1.372 2.961 2.32 4.3.252.355.51.712.876.963.405.277.714.185.905-.266a3.01 3.01 0 00.201-.902c.09-1.055.102-2.109-.056-3.16-.098-.657-.467-1.082-1.122-1.206-.334-.063-.285-.188-.123-.378.281-.33.546-.534 1.073-.534h3.951c.622.123.76.402.845 1.028l.004 4.39c-.007.242.12.96.557 1.121.35.114.58-.165.79-.387.946-1.004 1.62-2.19 2.224-3.42.268-.54.498-1.1.72-1.661.166-.416.426-.621.894-.612l3.803.003c.113 0 .227.002.336.02.641.11.817.386.619 1.011-.312.982-.919 1.8-1.512 2.622-.634.878-1.313 1.726-1.942 2.608-.577.806-.532 1.213.186 1.913z" clip-rule="evenodd"/></g><defs><clipPath id="clip0"><path fill="#fff" d="M0 0h24v24H0z"/></clipPath></defs></svg>